<svg viewBox="0 0 160 160" width="220" height="220" xmlns="http://www.w3.org/2000/svg">
<defs>
<linearGradient id="bg_m" x1="15%" y1="0%" x2="85%" y2="100%">
  <stop offset="0%"   stop-color="#2a5f8f"/>
  <stop offset="45%"  stop-color="#1a3d6e"/>
  <stop offset="100%" stop-color="#0f2444"/>
</linearGradient>
<radialGradient id="lu_m" cx="44%" cy="25%" r="90%">
  <stop offset="0%"   stop-color="#FFD166" stop-opacity="0.35"/>
  <stop offset="25%"  stop-color="#FFB830" stop-opacity="0.18"/>
  <stop offset="60%"  stop-color="#FF9500" stop-opacity="0.06"/>
  <stop offset="100%" stop-color="#FF9500" stop-opacity="0"/>
</radialGradient>
<radialGradient id="rise_m" cx="85%" cy="5%" r="60%">
  <stop offset="0%"   stop-color="#7ab8e8" stop-opacity="0.12"/>
  <stop offset="100%" stop-color="#7ab8e8" stop-opacity="0"/>
</radialGradient>
<radialGradient id="dk_m" cx="50%" cy="90%" r="50%">
  <stop offset="0%"   stop-color="#000" stop-opacity="0.40"/>
  <stop offset="100%" stop-color="#000" stop-opacity="0"/>
</radialGradient>
<radialGradient id="bl_m" cx="0%" cy="100%" r="45%">
  <stop offset="0%"   stop-color="#000" stop-opacity="0.50"/>
  <stop offset="100%" stop-color="#000" stop-opacity="0"/>
</radialGradient>
<radialGradient id="sw_m" cx="50%" cy="50%" r="50%">
  <stop offset="0%"   stop-color="#fff" stop-opacity="0.9"/>
  <stop offset="35%"  stop-color="#fff" stop-opacity="0.22"/>
  <stop offset="100%" stop-color="#fff" stop-opacity="0"/>
</radialGradient>
<radialGradient id="sb_m" cx="50%" cy="50%" r="50%">
  <stop offset="0%"   stop-color="#c8e8ff" stop-opacity="1"/>
  <stop offset="30%"  stop-color="#a0c8f0" stop-opacity="0.4"/>
  <stop offset="100%" stop-color="#c8e8ff" stop-opacity="0"/>
</radialGradient>
<radialGradient id="lg_m" cx="50%" cy="50%" r="50%">
  <stop offset="0%"   stop-color="#FFD166" stop-opacity="0.60"/>
  <stop offset="100%" stop-color="#FFD166" stop-opacity="0"/>
</radialGradient>
<radialGradient id="yg_m" cx="50%" cy="50%" r="50%">
  <stop offset="0%"   stop-color="#e8f0ff" stop-opacity="0.32"/>
  <stop offset="100%" stop-color="#c8e8ff" stop-opacity="0"/>
</radialGradient>
<clipPath id="circle_clip">
  <circle cx="80" cy="80" r="80"/>
</clipPath>
</defs>

<rect width="160" height="160" rx="80" fill="url(#bg_m)" clip-path="url(#circle_clip)"/>
<rect width="160" height="160" rx="80" fill="url(#lu_m)" clip-path="url(#circle_clip)"/>
<rect width="160" height="160" rx="80" fill="url(#rise_m)" clip-path="url(#circle_clip)"/>
<rect width="160" height="160" rx="80" fill="url(#dk_m)" clip-path="url(#circle_clip)"/>
<rect width="160" height="160" rx="80" fill="url(#bl_m)" clip-path="url(#circle_clip)"/>

<circle cx="30"  cy="22"  r="0.35" fill="#fff"    opacity="0.32"/>
<circle cx="112" cy="18"  r="0.35" fill="#fff"    opacity="0.40"/>
<circle cx="136" cy="24"  r="0.30" fill="#ffe8b0" opacity="0.32"/>
<circle cx="148" cy="38"  r="0.35" fill="#fff"    opacity="0.34"/>
<circle cx="24"  cy="55"  r="0.30" fill="#fff"    opacity="0.28"/>
<circle cx="132" cy="50"  r="0.35" fill="#ffe8b0" opacity="0.34"/>
<circle cx="18"  cy="88"  r="0.30" fill="#fff"    opacity="0.30"/>
<circle cx="148" cy="72"  r="0.35" fill="#fff"    opacity="0.36"/>
<circle cx="22"  cy="118" r="0.35" fill="#fff"    opacity="0.26"/>
<circle cx="138" cy="100" r="0.30" fill="#fff"    opacity="0.32"/>
<circle cx="40"  cy="145" r="0.30" fill="#fff"    opacity="0.24"/>

<circle cx="26"  cy="36"  r="0.75" fill="#fff"    opacity="0.52"/>
<circle cx="128" cy="26"  r="0.80" fill="#ffe8b0" opacity="0.60"/>
<circle cx="150" cy="48"  r="0.75" fill="#fff"    opacity="0.52"/>
<circle cx="18"  cy="72"  r="0.80" fill="#fff"    opacity="0.48"/>
<circle cx="146" cy="68"  r="0.75" fill="#fff"    opacity="0.54"/>
<circle cx="148" cy="98"  r="0.75" fill="#fff"    opacity="0.52"/>
<circle cx="28"  cy="136" r="0.80" fill="#fff"    opacity="0.44"/>
<circle cx="140" cy="136" r="0.75" fill="#fff"    opacity="0.46"/>

<circle cx="118" cy="36" r="5" fill="url(#sw_m)" opacity="0.585"/>
<circle cx="118" cy="36" r="1.3" fill="#fff" opacity="0.86"/>
<line x1="118" y1="31.5" x2="118" y2="40.5" stroke="#fff" stroke-width="0.5" stroke-linecap="round" opacity="0.55"/>
<line x1="113.5" y1="36" x2="122.5" y2="36" stroke="#fff" stroke-width="0.5" stroke-linecap="round" opacity="0.55"/>

<circle cx="132" cy="128" r="8" fill="url(#sb_m)" opacity="0.585"/>
<circle cx="132" cy="128" r="1.8" fill="#c8e8ff"/>
<line x1="132" y1="123" x2="132" y2="133"   stroke="#c8e8ff" stroke-width="0.62" stroke-linecap="round" opacity="0.72"/>
<line x1="127" y1="128" x2="137" y2="128"   stroke="#c8e8ff" stroke-width="0.62" stroke-linecap="round" opacity="0.72"/>

<rect x="42" y="46" width="18" height="64" rx="9" fill="#fff" opacity="0.97"/>
<rect x="74" y="60" width="18" height="50" rx="9" fill="#fff" opacity="0.93"/>
<rect x="100" y="60" width="18" height="50" rx="9" fill="#fff" opacity="0.86"/>

<circle cx="83" cy="36" r="20"  fill="url(#lg_m)" opacity="0.42"/>
<circle cx="83" cy="36" r="13"  fill="#FFD166" opacity="0.08"/>
<circle cx="83" cy="36" r="10"  fill="#FFD166" opacity="0.16"/>
<circle cx="83" cy="36" r="7"   fill="#FFD166" opacity="0.32"/>
<circle cx="83" cy="36" r="4.5" fill="#FFD166" opacity="0.62"/>
<circle cx="83" cy="36" r="2.5" fill="#FFD166" opacity="0.90"/>
<circle cx="83" cy="36" r="1.2"  fill="#FFD166"/>

<circle cx="109" cy="36" r="20"  fill="url(#yg_m)" opacity="0.18"/>
<circle cx="109" cy="36" r="13"  fill="#c8e8ff" opacity="0.08"/>
<circle cx="109" cy="36" r="10"  fill="#c8e8ff" opacity="0.16"/>
<circle cx="109" cy="36" r="7"   fill="#c8e8ff" opacity="0.32"/>
<circle cx="109" cy="36" r="4.5" fill="#c8e8ff" opacity="0.62"/>
<circle cx="109" cy="36" r="2.5" fill="#c8e8ff" opacity="0.90"/>
<circle cx="109" cy="36" r="1.2"  fill="#c8e8ff"/>
</svg>
